<?xml version="1.0" standalone="no"?>
<!DOCTYPE svg PUBLIC "-//W3C//DTD SVG 20010904//EN"
 "http://www.w3.org/TR/2001/REC-SVG-20010904/DTD/svg10.dtd">
<svg version="1.0" xmlns="http://www.w3.org/2000/svg"
 width="271.000000pt" height="211.000000pt" viewBox="0 0 271.000000 211.000000"
 preserveAspectRatio="xMidYMid meet">

<g transform="translate(0.000000,211.000000) scale(0.100000,-0.100000)"
fill="#000000" stroke="none">
<path d="M405 2087 c-108 -42 -156 -158 -106 -255 38 -74 100 -108 184 -100
l52 5 170 -229 c94 -126 171 -233 173 -238 2 -5 -10 -27 -26 -49 -20 -27 -34
-63 -41 -105 -12 -67 -9 -101 16 -180 l15 -49 -33 -26 c-18 -14 -36 -26 -39
-26 -10 0 -230 232 -229 241 0 5 54 58 120 118 65 61 119 114 119 118 0 4 -42
8 -92 8 l-93 0 -97 -97 -98 -98 0 203 0 202 -85 0 -85 0 0 -370 0 -370 85 0
85 0 0 108 0 107 100 -107 101 -107 61 -3 62 -3 -175 -152 -174 -151 -33 20
c-18 11 -59 22 -92 25 -51 5 -67 2 -114 -21 -152 -74 -179 -273 -52 -383 46
-41 95 -56 171 -51 75 5 131 37 172 100 24 36 28 51 28 117 0 42 -4 87 -8 101
-7 23 7 38 194 200 111 96 217 188 235 203 l34 28 60 -22 60 -22 0 -42 c0 -23
-3 -90 -7 -149 l-6 -108 -45 -19 c-85 -37 -134 -93 -153 -177 -22 -94 34 -207
124 -251 51 -25 141 -28 190 -8 153 65 188 265 67 384 -18 17 -46 37 -62 44
l-30 12 6 101 c4 56 9 124 12 153 l6 52 52 15 c28 8 73 29 99 46 26 16 50 30
54 30 3 0 97 -52 207 -115 l202 -116 0 -52 c1 -66 23 -109 75 -147 54 -38 116
-48 174 -26 47 19 102 73 109 109 15 71 15 91 0 125 -46 110 -163 154 -263 97
l-43 -25 -60 32 c-48 27 -55 34 -36 36 71 8 93 16 129 49 l39 35 0 -36 0 -36
85 0 85 0 0 370 0 370 -85 0 -85 0 0 -135 0 -135 -46 33 c-43 30 -51 32 -129
32 -78 0 -86 -2 -122 -30 -21 -18 -51 -57 -68 -90 -27 -53 -30 -70 -30 -150 0
-72 5 -100 22 -138 13 -27 19 -47 15 -45 -4 2 -35 19 -70 38 l-62 35 6 70 c3
42 1 88 -6 115 -22 84 -25 79 120 206 357 311 326 287 352 270 13 -8 47 -20
75 -26 43 -10 63 -9 109 5 140 41 204 193 136 326 -86 171 -323 167 -407 -6
-24 -48 -27 -63 -22 -113 4 -31 9 -68 12 -82 5 -22 -6 -35 -82 -101 -48 -42
-154 -133 -234 -202 l-146 -126 -39 19 c-65 32 -140 42 -218 29 -56 -9 -70 -9
-81 2 -7 8 -88 115 -179 238 l-167 224 16 33 c38 80 26 155 -34 215 -53 53
-123 70 -186 46z m90 -143 c34 -35 -6 -91 -52 -73 -16 6 -23 17 -23 37 0 49
42 69 75 36z m1535 -71 c36 -33 42 -78 16 -118 -51 -78 -166 -40 -166 55 0 30
6 44 31 64 40 34 80 34 119 -1z m-226 -675 c39 -17 58 -55 64 -123 9 -118 -49
-191 -135 -169 -52 13 -76 51 -81 128 -2 35 1 80 8 100 21 65 83 93 144 64z
m-637 -28 c37 -22 48 -61 41 -146 -5 -64 -32 -99 -83 -108 -39 -8 -91 11 -118
41 -23 27 -33 110 -17 157 23 69 110 97 177 56z m798 -574 c19 -29 11 -54 -21
-62 -43 -11 -73 29 -48 64 20 29 50 28 69 -2z m-1679 -224 c49 -39 56 -86 19
-130 -44 -52 -105 -51 -147 2 -63 77 51 191 128 128z m828 -73 c15 -17 26 -43
26 -59 0 -16 -11 -42 -26 -59 -37 -45 -101 -45 -138 0 -33 39 -33 79 0 118 21
26 33 31 69 31 36 0 48 -5 69 -31z"/>
<path d="M2275 1315 c-27 -8 -53 -14 -57 -15 -9 0 -11 -120 -3 -120 3 0 34 9
68 21 89 30 191 23 224 -16 13 -15 22 -32 20 -39 -2 -7 -44 -13 -113 -16 -180
-9 -249 -59 -249 -180 0 -104 72 -170 185 -170 59 0 133 30 153 61 18 29 27
23 27 -16 l0 -35 85 0 85 0 0 176 c0 100 -5 195 -12 221 -15 61 -70 116 -131
131 -62 16 -220 14 -282 -3z m248 -323 c-4 -89 -134 -136 -179 -66 -39 59 16
105 121 101 l60 -2 -2 -33z"/>
</g>
</svg>
