<?xml version="1.0" standalone="no"?>
<!DOCTYPE svg PUBLIC "-//W3C//DTD SVG 20010904//EN"
 "http://www.w3.org/TR/2001/REC-SVG-20010904/DTD/svg10.dtd">
<svg version="1.0" xmlns="http://www.w3.org/2000/svg"
 width="119.000000pt" height="56.000000pt" viewBox="0 0 119.000000 56.000000"
 preserveAspectRatio="xMidYMid meet">

<g transform="translate(0.000000,56.000000) scale(0.100000,-0.100000)"
fill="#000000" stroke="none">
<path d="M0 280 l0 -280 595 0 595 0 0 280 0 280 -595 0 -595 0 0 -280z m112
104 l3 -57 39 57 c38 55 39 56 87 56 27 0 49 -2 49 -5 0 -3 -25 -39 -56 -80
l-55 -74 61 -78 62 -78 -48 -3 c-52 -4 -52 -4 -116 78 l-28 35 0 -57 0 -58
-40 0 -40 0 0 160 0 160 40 0 39 0 3 -56z m719 21 c62 -59 75 -132 36 -205
-33 -63 -72 -80 -179 -80 l-88 0 0 161 0 161 99 -4 c95 -3 101 -4 132 -33z
m-343 -45 c80 -49 80 -181 0 -230 -91 -55 -208 10 -208 115 0 105 117 170 208
115z m635 11 l47 0 0 -126 0 -126 -47 0 c-27 0 -69 -2 -95 -5 -45 -6 -50 -4
-82 28 -61 61 -58 159 6 213 27 23 38 26 77 21 25 -3 67 -5 94 -5z"/>
<path d="M680 280 l0 -80 39 0 c57 0 86 27 86 80 0 53 -29 80 -86 80 l-39 0 0
-80z"/>
<path d="M382 294 c-33 -23 -30 -78 4 -101 24 -15 29 -15 53 -2 36 20 42 80 9
103 -28 20 -38 20 -66 0z"/>
<path d="M996 288 c-22 -31 -20 -64 4 -88 24 -24 43 -25 64 -5 23 24 28 52 14
82 -18 37 -60 43 -82 11z"/>
</g>
</svg>
